<?xml version="1.0" encoding="UTF-8"?>
<svg xmlns="http://www.w3.org/2000/svg" xmlns:xlink="http://www.w3.org/1999/xlink" width="113px" height="102px" viewBox="0 0 113 102" version="1.1">
<defs>
<linearGradient id="linear0" gradientUnits="userSpaceOnUse" x1="12.4809" y1="2" x2="12.4809" y2="22.7407" gradientTransform="matrix(3.53125,0,0,3.1875,0,0)">
<stop offset="0" style="stop-color:rgb(19.607843%,49.411765%,74.117647%);stop-opacity:1;"/>
<stop offset="1" style="stop-color:rgb(8.235294%,39.607843%,65.490196%);stop-opacity:1;"/>
</linearGradient>
<linearGradient id="linear1" gradientUnits="userSpaceOnUse" x1="19.518999" y1="9.25928" x2="19.518999" y2="30" gradientTransform="matrix(3.53125,0,0,3.1875,0,0)">
<stop offset="0" style="stop-color:rgb(100%,85.490196%,29.411765%);stop-opacity:1;"/>
<stop offset="1" style="stop-color:rgb(97.647059%,77.647059%,0%);stop-opacity:1;"/>
</linearGradient>
</defs>
<g id="surface1">
<path style=" stroke:none;fill-rule:evenodd;fill:url(#linear0);" d="M 45.964844 6.375 C 38.207031 6.375 31.917969 11.871094 31.917969 18.652344 L 31.917969 27.152344 L 56.230469 27.152344 L 56.230469 29.515625 L 21.109375 29.515625 C 13.351562 29.515625 7.0625 35.011719 7.0625 41.792969 L 7.0625 60.207031 C 7.0625 66.988281 13.351562 72.484375 21.109375 72.484375 L 29.214844 72.484375 L 29.214844 62.097656 C 29.214844 55.316406 35.503906 49.820312 43.261719 49.820312 L 69.195312 49.820312 C 75.761719 49.820312 81.082031 45.167969 81.082031 39.429688 L 81.082031 18.652344 C 81.082031 11.871094 74.792969 6.375 67.035156 6.375 Z M 42.722656 21.484375 C 45.40625 21.484375 47.585938 19.582031 47.585938 17.234375 C 47.585938 14.890625 45.40625 12.984375 42.722656 12.984375 C 40.035156 12.984375 37.859375 14.890625 37.859375 17.234375 C 37.859375 19.582031 40.035156 21.484375 42.722656 21.484375 Z M 42.722656 21.484375 "/>
<path style=" stroke:none;fill-rule:evenodd;fill:url(#linear1);" d="M 67.035156 95.625 C 74.792969 95.625 81.082031 90.128906 81.082031 83.347656 L 81.082031 74.847656 L 56.769531 74.847656 L 56.769531 72.484375 L 91.890625 72.484375 C 99.648438 72.484375 105.9375 66.988281 105.9375 60.207031 L 105.9375 41.792969 C 105.9375 35.011719 99.648438 29.515625 91.890625 29.515625 L 83.785156 29.515625 L 83.785156 39.902344 C 83.785156 46.683594 77.496094 52.179688 69.738281 52.179688 L 43.800781 52.179688 C 37.238281 52.179688 31.914062 56.832031 31.914062 62.570312 L 31.914062 83.347656 C 31.914062 90.128906 38.207031 95.625 45.964844 95.625 Z M 70.277344 80.515625 C 67.589844 80.515625 65.414062 82.417969 65.414062 84.765625 C 65.414062 87.109375 67.589844 89.015625 70.277344 89.015625 C 72.960938 89.015625 75.140625 87.109375 75.140625 84.765625 C 75.140625 82.417969 72.960938 80.515625 70.277344 80.515625 Z M 70.277344 80.515625 "/>
</g>
</svg>
