<?xml version="1.0" encoding="UTF-8"?>
<svg xmlns="http://www.w3.org/2000/svg" xmlns:xlink="http://www.w3.org/1999/xlink" width="113px" height="102px" viewBox="0 0 113 102" version="1.1">
<g id="surface1">
<path style=" stroke:none;fill-rule:nonzero;fill:rgb(14.509805%,18.431373%,24.313726%);fill-opacity:1;" d="M 31.851562 49.003906 C 31.851562 50.261719 31.992188 51.28125 32.261719 52.03125 C 32.558594 52.777344 32.941406 53.59375 33.460938 54.480469 C 33.722656 55.601562 33.496094 55.945312 33.015625 56.285156 L 30.644531 57.710938 C 29.289062 58.019531 28.914062 57.851562 28.539062 57.546875 C 28.03125 57.054688 27.578125 56.519531 27.183594 55.945312 C 26.761719 55.292969 26.375 54.621094 26.019531 53.9375 C 23.085938 57.070312 19.40625 58.636719 14.972656 58.636719 C 11.816406 58.636719 9.292969 57.816406 7.457031 56.183594 C 5.613281 54.550781 4.675781 52.371094 4.675781 49.648438 C 4.675781 46.753906 5.804688 44.410156 8.09375 42.636719 C 10.390625 40.863281 13.433594 39.984375 17.304688 39.984375 C 18.574219 39.984375 19.894531 40.085938 21.285156 40.25 C 22.675781 40.425781 24.113281 40.699219 25.609375 41.003906 L 25.609375 38.519531 C 25.609375 35.929688 25.007812 34.125 23.84375 33.074219 C 22.640625 32.015625 20.609375 31.503906 17.710938 31.503906 C 16.398438 31.503906 15.050781 31.644531 13.660156 31.953125 C 12.277344 32.25 10.917969 32.632812 9.597656 33.105469 C 9.171875 33.28125 8.734375 33.429688 8.285156 33.550781 C 7.15625 33.652344 6.894531 33.308594 6.894531 32.59375 L 6.894531 30.925781 C 6.894531 30.382812 6.964844 29.96875 7.15625 29.738281 C 9.519531 28.40625 11.101562 27.898438 12.945312 27.488281 C 14.78125 27.042969 16.738281 26.84375 18.808594 26.84375 C 23.277344 26.84375 26.546875 27.761719 28.652344 29.597656 C 30.722656 31.433594 31.773438 34.226562 31.773438 37.976562 L 31.773438 49.003906 Z M 16.589844 54.175781 C 17.824219 54.175781 19.105469 53.972656 20.460938 53.5625 C 21.808594 53.15625 23.015625 52.402344 24.027344 51.382812 C 24.632812 50.757812 25.070312 50.011719 25.304688 49.207031 C 25.53125 48.386719 25.6875 47.40625 25.6875 46.246094 L 25.6875 44.816406 C 24.546875 44.566406 23.390625 44.375 22.226562 44.242188 C 21.054688 44.105469 19.875 44.035156 18.695312 44.03125 C 16.171875 44.03125 14.328125 44.476562 13.09375 45.394531 C 11.851562 46.3125 11.257812 47.609375 11.257812 49.3125 C 11.257812 50.90625 11.703125 52.097656 12.640625 52.917969 C 13.546875 53.765625 14.859375 54.175781 16.589844 54.175781 Z M 46.769531 57.851562 C 46.089844 57.851562 45.636719 57.75 45.339844 57.507812 C 45.039062 57.304688 44.777344 56.832031 44.550781 56.183594 L 35.722656 29.875 C 35.546875 29.433594 35.433594 28.972656 35.375 28.507812 C 35.375 27.96875 35.679688 27.660156 36.28125 27.660156 L 39.964844 27.660156 C 40.671875 27.660156 41.167969 27.761719 41.429688 28 C 41.730469 28.203125 41.957031 28.679688 42.183594 29.324219 L 48.5 51.859375 L 54.359375 29.324219 C 54.542969 28.648438 54.769531 28.203125 55.066406 28 L 59.578125 27.660156 C 60.300781 27.660156 60.78125 27.761719 61.082031 28 C 61.386719 28.203125 61.648438 28.679688 61.796875 29.324219 L 67.738281 52.132812 L 74.234375 29.324219 L 79.953125 27.660156 C 80.554688 27.660156 80.894531 27.933594 80.894531 28.507812 C 80.894531 28.679688 80.851562 28.851562 80.824219 29.058594 L 71.492188 56.214844 C 71.269531 56.898438 71.007812 57.34375 70.710938 57.546875 L 66.046875 57.886719 C 65.335938 57.886719 64.847656 57.78125 64.542969 57.546875 C 64.242188 57.304688 63.980469 56.863281 63.832031 56.183594 L 58.003906 34.234375 L 52.214844 56.15625 C 52.03125 56.839844 51.804688 57.28125 51.507812 57.515625 C 51.203125 57.757812 50.671875 57.859375 50.003906 57.859375 L 46.769531 57.859375 Z M 95.0625 58.769531 C 93.109375 58.773438 91.167969 58.566406 89.269531 58.160156 C 87.390625 57.75 85.929688 57.304688 84.949219 56.792969 C 84.347656 56.488281 83.9375 56.152344 83.78125 55.839844 L 83.5625 53.15625 C 83.5625 52.441406 83.859375 52.097656 84.425781 52.097656 C 85.328125 52.269531 85.667969 52.402344 86.042969 52.542969 C 87.3125 53.054688 88.710938 53.460938 90.175781 53.734375 C 91.679688 54.003906 93.140625 54.144531 94.644531 54.144531 C 97.015625 54.144531 98.855469 53.765625 100.132812 53.019531 C 101.382812 52.335938 102.128906 51.101562 102.089844 49.78125 C 102.113281 48.898438 101.746094 48.042969 101.070312 47.40625 C 100.402344 46.753906 99.121094 46.175781 97.277344 45.632812 L 91.828125 44.101562 C 89.085938 43.316406 87.050781 42.15625 85.816406 40.628906 C 84.605469 39.214844 83.945312 37.480469 83.9375 35.695312 C 83.9375 34.265625 84.277344 33.003906 84.949219 31.914062 C 85.625 30.828125 86.53125 29.875 87.660156 29.121094 C 88.789062 28.34375 90.0625 27.761719 91.566406 27.355469 C 93.070312 26.945312 94.644531 26.773438 96.296875 26.773438 C 97.128906 26.773438 97.992188 26.808594 98.820312 26.910156 C 99.679688 27.011719 100.472656 27.152344 101.261719 27.292969 C 102.011719 27.457031 102.730469 27.621094 103.402344 27.832031 C 104.078125 28.039062 104.601562 28.242188 104.984375 28.445312 L 106.445312 32.015625 C 106.445312 32.730469 106.148438 33.105469 105.585938 33.105469 C 101.886719 31.789062 99.425781 31.335938 96.941406 31.371094 C 94.800781 31.371094 93.105469 31.675781 91.941406 32.328125 C 90.773438 32.964844 90.175781 33.960938 90.175781 35.355469 C 90.175781 36.304688 90.546875 37.121094 91.304688 37.773438 C 92.050781 38.414062 93.445312 39.058594 95.4375 39.640625 L 100.773438 41.167969 C 103.480469 41.953125 105.4375 43.042969 106.601562 44.441406 C 107.765625 45.835938 108.324219 47.4375 108.324219 49.207031 C 108.324219 50.675781 107.992188 51.996094 107.351562 53.15625 C 106.683594 54.320312 105.75 55.339844 104.609375 56.152344 C 103.445312 57 102.054688 57.617188 100.4375 58.058594 C 98.742188 58.535156 96.976562 58.769531 95.0625 58.769531 Z M 95.0625 58.769531 "/>
<path style=" stroke:none;fill-rule:evenodd;fill:rgb(100%,60.000002%,0%);fill-opacity:1;" d="M 102.160156 75.308594 C 89.800781 83.578125 71.832031 87.96875 56.386719 87.96875 C 34.742188 87.96875 15.234375 80.71875 0.5 68.671875 C -0.664062 67.714844 0.386719 66.421875 1.773438 67.171875 C 17.710938 75.542969 37.367188 80.617188 57.707031 80.617188 C 71.414062 80.617188 86.488281 78.03125 100.359375 72.71875 C 102.425781 71.871094 104.191406 73.945312 102.160156 75.308594 Z M 102.160156 75.308594 "/>
<path style=" stroke:none;fill-rule:evenodd;fill:rgb(100%,60.000002%,0%);fill-opacity:1;" d="M 107.308594 69.996094 C 105.734375 68.167969 96.863281 69.117188 92.84375 69.558594 C 91.644531 69.699219 91.453125 68.742188 92.539062 68.027344 C 99.601562 63.535156 111.21875 64.828125 112.570312 66.324219 C 113.925781 67.855469 112.195312 78.375 105.578125 83.410156 C 104.566406 84.195312 103.59375 83.792969 104.039062 82.773438 C 105.542969 79.394531 108.890625 71.808594 107.308594 70.003906 Z M 107.308594 69.996094 "/>
</g>
</svg>
